<svg width="47" height="52" viewBox="0 0 47 52" fill="none" xmlns="http://www.w3.org/2000/svg">
<path d="M7.56747 41.7273L6.36009 49H4.8402L5.84517 42.9773H2.90483L1.89986 49H0.379972L1.58736 41.7273H7.56747ZM15.0968 45.4631C14.9642 46.2396 14.7073 46.8989 14.3262 47.4411C13.9474 47.9832 13.4846 48.3951 12.9377 48.6768C12.3932 48.9586 11.806 49.0994 11.1763 49.0994C10.5158 49.0994 9.94644 48.9491 9.46822 48.6484C8.99237 48.3478 8.6479 47.9134 8.43484 47.3452C8.22177 46.7746 8.18152 46.0869 8.3141 45.282C8.44194 44.5031 8.69644 43.8426 9.07759 43.3004C9.45875 42.7559 9.92395 42.3416 10.4732 42.0575C11.0224 41.7711 11.6131 41.6278 12.2452 41.6278C12.901 41.6278 13.4668 41.7794 13.9426 42.0824C14.4209 42.3854 14.7653 42.8234 14.976 43.3963C15.1891 43.9669 15.2293 44.6558 15.0968 45.4631ZM13.5662 45.282C13.6491 44.7824 13.6455 44.3634 13.5556 44.0249C13.468 43.6839 13.307 43.4259 13.0726 43.2507C12.8382 43.0755 12.5423 42.9879 12.1848 42.9879C11.7966 42.9879 11.4403 43.085 11.1159 43.2791C10.794 43.4732 10.5217 43.755 10.2992 44.1243C10.079 44.4912 9.92631 44.9375 9.84109 45.4631C9.75586 45.965 9.75823 46.384 9.84819 46.7202C9.94052 47.0563 10.1051 47.3108 10.3418 47.4837C10.5809 47.6541 10.878 47.7393 11.2331 47.7393C11.619 47.7393 11.9718 47.6446 12.2914 47.4553C12.6133 47.2635 12.8844 46.9853 13.1046 46.6207C13.3248 46.2538 13.4786 45.8075 13.5662 45.282ZM16.8537 41.7273H18.75L19.9467 46.6136H20.032L22.8409 41.7273H24.7372L23.5298 49H22.0384L22.8267 44.2663H22.7628L20.1065 48.9645H19.0874L17.9936 44.2486H17.9332L17.1378 49H15.6463L16.8537 41.7273ZM32.0694 45.4631C31.9368 46.2396 31.68 46.8989 31.2988 47.4411C30.92 47.9832 30.4572 48.3951 29.9103 48.6768C29.3658 48.9586 28.7787 49.0994 28.149 49.0994C27.4885 49.0994 26.9191 48.9491 26.4409 48.6484C25.965 48.3478 25.6206 47.9134 25.4075 47.3452C25.1944 46.7746 25.1542 46.0869 25.2868 45.282C25.4146 44.5031 25.6691 43.8426 26.0502 43.3004C26.4314 42.7559 26.8966 42.3416 27.4458 42.0575C27.9951 41.7711 28.5858 41.6278 29.2179 41.6278C29.8736 41.6278 30.4395 41.7794 30.9153 42.0824C31.3935 42.3854 31.738 42.8234 31.9487 43.3963C32.1618 43.9669 32.202 44.6558 32.0694 45.4631ZM30.5389 45.282C30.6217 44.7824 30.6182 44.3634 30.5282 44.0249C30.4406 43.6839 30.2797 43.4259 30.0453 43.2507C29.8109 43.0755 29.515 42.9879 29.1575 42.9879C28.7692 42.9879 28.4129 43.085 28.0886 43.2791C27.7666 43.4732 27.4944 43.755 27.2718 44.1243C27.0517 44.4912 26.899 44.9375 26.8137 45.4631C26.7285 45.965 26.7309 46.384 26.8208 46.7202C26.9132 47.0563 27.0777 47.3108 27.3145 47.4837C27.5536 47.6541 27.8507 47.7393 28.2058 47.7393C28.5917 47.7393 28.9444 47.6446 29.264 47.4553C29.586 47.2635 29.8571 46.9853 30.0772 46.6207C30.2974 46.2538 30.4513 45.8075 30.5389 45.282ZM34.1211 41.7273H35.5984L35.2077 44.071C35.1604 44.3504 35.1734 44.5753 35.2468 44.7457C35.3202 44.9138 35.454 45.0357 35.6481 45.1115C35.8446 45.1849 36.1038 45.2216 36.4258 45.2216C36.5394 45.2216 36.6744 45.218 36.8306 45.2109C36.9869 45.2015 37.1478 45.1884 37.3136 45.1719C37.4817 45.1553 37.6403 45.1352 37.7894 45.1115C37.9409 45.0878 38.0676 45.0606 38.1694 45.0298L37.9741 46.2443C37.8652 46.2775 37.7338 46.3071 37.5799 46.3331C37.4284 46.3568 37.2686 46.3781 37.1005 46.397C36.9348 46.4136 36.775 46.4266 36.6211 46.4361C36.4672 46.4455 36.3335 46.4503 36.2198 46.4503C35.6351 46.4503 35.1403 46.3674 34.7354 46.2017C34.333 46.0336 34.0418 45.7744 33.8619 45.424C33.6819 45.0736 33.6381 44.6226 33.7305 44.071L34.1211 41.7273ZM38.4677 41.7273H39.9521L38.7447 49H37.2603L38.4677 41.7273ZM42.0028 44.4155H43.7358C44.3134 44.4155 44.7952 44.509 45.1811 44.696C45.5694 44.8807 45.8487 45.1423 46.0192 45.4808C46.192 45.8194 46.2393 46.2183 46.1612 46.6776C46.0855 47.1345 45.9044 47.5381 45.6179 47.8885C45.3314 48.2365 44.9621 48.5088 44.5099 48.7053C44.0601 48.9018 43.5476 49 42.9723 49H40.2521L41.4595 41.7273H42.9972L41.9957 47.7642H43.1783C43.4529 47.7642 43.6932 47.7145 43.8991 47.6151C44.1075 47.5133 44.2744 47.3795 44.3999 47.2138C44.5277 47.0457 44.607 46.8622 44.6378 46.6634C44.6875 46.3745 44.6188 46.1307 44.4318 45.9318C44.2448 45.7306 43.9453 45.63 43.5334 45.63H41.8004L42.0028 44.4155Z" fill="black"/>
<path d="M33.8845 29.4207C35.5419 32.0032 36.3231 33.3743 36.3231 34.8045C36.3231 37.6289 34.2032 38.9984 31.3474 38.9984C30.0886 38.9984 29.276 38.9968 27.2223 37.9395C27.2223 37.9395 25.8916 36.7345 22.7776 36.8583C19.6346 36.7353 18.3031 37.9547 18.3031 37.9547C16.2494 39.0112 15.4659 39 14.2087 39C11.3529 39 9.2314 37.6321 9.2314 34.8061C9.2314 33.3759 10.0149 32.0064 11.6716 29.4223C11.6716 29.4223 14.8034 24.2757 17.5171 21.8545C19.478 20.1073 22.337 20.1137 22.337 20.1137H23.219C23.219 20.1137 26.2031 20.1057 28.0414 21.8545C30.6712 24.3635 33.8845 29.4215 33.8845 29.4207ZM15.8008 16.672C18.7865 16.672 21.2065 12.9396 21.2065 8.33598C21.2065 3.73239 18.7865 0 15.8008 0C12.8151 0 10.395 3.73239 10.395 8.33598C10.395 12.9396 12.8151 16.672 15.8008 16.672ZM10.6202 24.7452C12.8207 23.7399 13.3226 20.1752 11.7402 16.783C10.1578 13.3908 7.09137 11.4551 4.89082 12.4597C2.69028 13.4642 2.18916 17.0297 3.77078 20.4219C5.3532 23.8141 8.41961 25.749 10.6202 24.7452ZM28.369 16.672C31.3547 16.672 33.7755 12.9396 33.7755 8.33598C33.7755 3.73239 31.3547 0 28.369 0C25.3833 0 22.9632 3.73239 22.9632 8.33598C22.9632 12.9396 25.3833 16.672 28.369 16.672ZM39.2797 12.4589C37.0784 11.4535 34.0128 13.3892 32.4303 16.7822C30.8479 20.1752 31.3498 23.7399 33.5512 24.7452C35.7525 25.7498 38.8181 23.8141 40.4006 20.4219C41.983 17.0297 41.4811 13.4642 39.2797 12.4589Z" fill="white"/>
</svg>
