<svg width="48" height="42" viewBox="0 0 48 42" fill="none" xmlns="http://www.w3.org/2000/svg">
<g clip-path="url(#clip0_188_31)">
<path fill-rule="evenodd" clip-rule="evenodd" d="M22.4 12.6C22.4 9.25827 23.9171 6.05341 26.6177 3.69045C29.3182 1.3275 32.9809 0 36.8 0L48 0V9.8C48 13.1417 46.4829 16.3466 43.7823 18.7095C41.0818 21.0725 37.4191 22.4 33.6 22.4H25.6V42H22.4V30.8H14.4C10.5809 30.8 6.91819 29.4725 4.21766 27.1095C1.51714 24.7466 0 21.5417 0 18.2L0 8.4H11.2C15.7248 8.4 19.76 10.2256 22.4 13.0788V12.6ZM26.0672 17.2088L35.6672 8.8088L37.9328 10.7912L28.3328 19.1912L26.0672 17.2088ZM19.6672 27.5912L10.0672 19.1912L12.3328 17.2088L21.9328 25.6088L19.6672 27.5912Z" fill="#EEEEEE"/>
</g>
<defs>
<clipPath id="clip0_188_31">
<rect width="48" height="42" fill="white"/>
</clipPath>
</defs>
</svg>
